<svg width="569" height="569" viewBox="0 0 569 569" fill="none" xmlns="http://www.w3.org/2000/svg">
<path d="M296.113 568.482C352.306 566.158 406.549 547.222 451.981 514.071C497.413 480.919 531.994 435.039 551.351 382.234C570.708 329.429 573.972 272.069 560.73 217.409C547.488 162.748 518.334 113.242 476.956 75.1506C435.578 37.0591 383.834 12.0931 328.266 3.40972C272.699 -5.2737 215.805 2.71547 164.778 26.3669C113.752 50.0184 70.8844 88.2699 41.5973 136.284C12.3103 184.299 -2.08118 239.919 0.242874 296.113L72.5662 293.122C70.8337 251.232 81.5618 209.77 103.394 173.978C125.226 138.186 157.181 109.671 195.219 92.0403C233.256 74.4094 275.668 68.4539 317.091 74.9269C358.513 81.3999 397.086 100.011 427.931 128.406C458.776 156.801 480.509 193.705 490.38 234.452C500.251 275.198 497.818 317.957 483.388 357.32C468.959 396.684 443.18 430.885 409.313 455.598C375.446 480.311 335.011 494.426 293.122 496.158L296.113 568.482Z" fill="url(#paint0_angular_43_108)"/>
<defs>
<radialGradient id="paint0_angular_43_108" cx="0" cy="0" r="1" gradientUnits="userSpaceOnUse" gradientTransform="translate(284.362 284.362) rotate(88.3345) scale(284.482)">
<stop stop-color="white"/>
<stop offset="0.54" stop-color="#F55C5C"/>
<stop offset="1" stop-color="#A61E1E"/>
</radialGradient>
</defs>
</svg>
